<svg width="20" height="20" viewBox="0 0 20 20" fill="none" xmlns="http://www.w3.org/2000/svg">
<path fill-rule="evenodd" clip-rule="evenodd" d="M9.95691 12.2225C6.93818 12.2225 4.39111 12.7158 4.39111 14.6196C4.39111 16.5241 6.95463 17 9.95691 17C12.9756 17 15.5227 16.5068 15.5227 14.603C15.5227 12.6985 12.9592 12.2225 9.95691 12.2225Z" fill="white"/>
<path fill-rule="evenodd" clip-rule="evenodd" d="M9.95407 10.4087C11.9981 10.4087 13.6372 8.76018 13.6372 6.70435C13.6372 4.64772 11.9981 3.00005 9.95407 3.00005C7.90999 3.00005 6.271 4.64772 6.271 6.70435C6.271 8.76018 7.90999 10.4087 9.95407 10.4087Z" fill="white"/>
<path fill-rule="evenodd" clip-rule="evenodd" d="M17.9525 7.56726C18.4813 5.487 16.9308 3.6187 14.9565 3.6187C14.7418 3.6187 14.5365 3.64234 14.3359 3.68252C14.3093 3.68883 14.2795 3.70223 14.2639 3.72586C14.2458 3.75581 14.2592 3.79599 14.2787 3.822C14.8719 4.65883 15.2127 5.6777 15.2127 6.77141C15.2127 7.81943 14.9 8.79654 14.3516 9.60735C14.2952 9.69087 14.3453 9.80357 14.4449 9.8209C14.5828 9.84535 14.7238 9.85795 14.8679 9.86189C16.3056 9.89969 17.596 8.96909 17.9525 7.56726Z" fill="white"/>
<path fill-rule="evenodd" clip-rule="evenodd" d="M19.4582 12.4644C19.195 11.9002 18.5596 11.5133 17.5935 11.3234C17.1375 11.2115 15.9036 11.0539 14.7558 11.0752C14.7386 11.0776 14.7292 11.0894 14.7276 11.0972C14.7253 11.1083 14.7299 11.1272 14.7527 11.139C15.2831 11.403 17.3334 12.5511 17.0757 14.9726C17.0647 15.0773 17.1485 15.168 17.2527 15.1522C17.7573 15.0797 19.0555 14.7992 19.4582 13.9253C19.6807 13.4635 19.6807 12.9269 19.4582 12.4644Z" fill="white"/>
<path fill-rule="evenodd" clip-rule="evenodd" d="M5.66444 3.68252C5.46464 3.64155 5.25857 3.6187 5.0439 3.6187C3.06956 3.6187 1.51907 5.487 2.04869 7.56726C2.40439 8.96909 3.69477 9.89969 5.13244 9.86189C5.2766 9.85795 5.41839 9.84452 5.5555 9.8209C5.65504 9.80357 5.70517 9.69087 5.64874 9.60735C5.10033 8.79575 4.7877 7.81943 4.7877 6.77141C4.7877 5.67691 5.12929 4.65805 5.72241 3.822C5.74122 3.79599 5.75531 3.75581 5.7365 3.72586C5.72083 3.70144 5.69183 3.68883 5.66444 3.68252Z" fill="white"/>
<path fill-rule="evenodd" clip-rule="evenodd" d="M2.40635 11.3236C1.44033 11.5135 0.805714 11.9004 0.542467 12.4646C0.319178 12.9272 0.319178 13.4638 0.542467 13.9263C0.945173 14.7994 2.24338 15.0807 2.74794 15.1524C2.85214 15.1682 2.93519 15.0783 2.92422 14.9727C2.66646 12.5521 4.71681 11.404 5.24802 11.14C5.26994 11.1274 5.27462 11.1093 5.2723 11.0975C5.27073 11.0896 5.26211 11.0778 5.24487 11.0762C4.0963 11.0541 2.86311 11.2117 2.40635 11.3236Z" fill="white"/>
</svg>
