<svg width="344" height="274" viewBox="0 0 344 274" fill="none" xmlns="http://www.w3.org/2000/svg">
<path fill-rule="evenodd" clip-rule="evenodd" d="M284.34 89.05C289.636 89.05 293.93 93.3436 293.93 98.64C293.93 103.936 289.636 108.23 284.34 108.23H229.54C234.836 108.23 239.13 112.524 239.13 117.82C239.13 123.116 234.836 127.41 229.54 127.41H259.68C264.976 127.41 269.27 131.704 269.27 137C269.27 142.296 264.976 146.59 259.68 146.59H245.742C239.064 146.59 233.65 150.884 233.65 156.18C233.65 159.711 236.39 162.908 241.87 165.77C247.166 165.77 251.46 170.064 251.46 175.36C251.46 180.656 247.166 184.95 241.87 184.95H128.16C122.863 184.95 118.57 180.656 118.57 175.36C118.57 170.064 122.863 165.77 128.16 165.77H74.7299C69.4335 165.77 65.1399 161.476 65.1399 156.18C65.1399 150.884 69.4335 146.59 74.7299 146.59H129.53C134.826 146.59 139.12 142.296 139.12 137C139.12 131.704 134.826 127.41 129.53 127.41H95.2799C89.9835 127.41 85.6899 123.116 85.6899 117.82C85.6899 112.524 89.9835 108.23 95.2799 108.23H150.08C144.783 108.23 140.49 103.936 140.49 98.64C140.49 93.3436 144.783 89.05 150.08 89.05H284.34ZM284.34 127.41C289.636 127.41 293.93 131.704 293.93 137C293.93 142.296 289.636 146.59 284.34 146.59C279.043 146.59 274.75 142.296 274.75 137C274.75 131.704 279.043 127.41 284.34 127.41Z" fill="#F3F7FF"/>
<path fill-rule="evenodd" clip-rule="evenodd" d="M211.28 87.68L224.024 180.625L225.169 189.949C225.538 192.953 223.401 195.687 220.397 196.056L140.17 205.907C137.166 206.276 134.432 204.14 134.063 201.136L121.711 100.54C121.527 99.0379 122.595 97.6708 124.097 97.4864C124.107 97.4852 124.116 97.4841 124.125 97.483L130.781 96.7364M136.164 96.1327L142.448 95.4277L136.164 96.1327Z" fill="white"/>
<path d="M212.977 87.4474C212.848 86.5104 211.985 85.8549 211.048 85.9834C210.111 86.1119 209.455 86.9756 209.584 87.9126L212.977 87.4474ZM224.024 180.625L225.724 180.416C225.723 180.408 225.722 180.4 225.72 180.392L224.024 180.625ZM134.063 201.136L135.763 200.927L134.063 201.136ZM124.125 97.483L123.935 95.7812L123.935 95.7812L124.125 97.483ZM130.972 98.4382C131.912 98.3328 132.589 97.4854 132.483 96.5455C132.378 95.6056 131.53 94.9291 130.591 95.0346L130.972 98.4382ZM135.973 94.4309C135.033 94.5363 134.357 95.3837 134.462 96.3236C134.567 97.2635 135.415 97.9399 136.355 97.8345L135.973 94.4309ZM142.639 97.1296C143.579 97.0241 144.255 96.1767 144.15 95.2368C144.044 94.297 143.197 93.6205 142.257 93.7259L142.639 97.1296ZM209.584 87.9126L222.327 180.857L225.72 180.392L212.977 87.4474L209.584 87.9126ZM222.324 180.833L223.469 190.158L226.869 189.74L225.724 180.416L222.324 180.833ZM223.469 190.158C223.723 192.223 222.254 194.103 220.189 194.356L220.606 197.756C224.549 197.272 227.353 193.683 226.869 189.74L223.469 190.158ZM220.189 194.356L139.961 204.207L140.379 207.607L220.606 197.756L220.189 194.356ZM139.961 204.207C137.896 204.461 136.016 202.992 135.763 200.927L132.363 201.344C132.847 205.287 136.436 208.091 140.379 207.607L139.961 204.207ZM135.763 200.927L123.411 100.331L120.012 100.749L132.363 201.344L135.763 200.927ZM123.411 100.331C123.342 99.7679 123.742 99.2553 124.306 99.1861L123.888 95.7866C121.448 96.0863 119.712 98.3078 120.012 100.749L123.411 100.331ZM124.306 99.1861C124.309 99.1857 124.313 99.1852 124.316 99.1848L123.935 95.7812C123.919 95.7829 123.904 95.7847 123.888 95.7866L124.306 99.1861ZM124.316 99.1848L130.972 98.4382L130.591 95.0346L123.935 95.7812L124.316 99.1848ZM136.355 97.8345L142.639 97.1296L142.257 93.7259L135.973 94.4309L136.355 97.8345ZM142.257 93.7259L135.973 94.4309L136.355 97.8345L142.639 97.1296L142.257 93.7259Z" fill="#021C7A"/>
<path fill-rule="evenodd" clip-rule="evenodd" d="M207.812 93.5288L219.347 177.761L220.384 186.212C220.718 188.934 218.809 191.409 216.118 191.739L144.273 200.561C141.583 200.891 139.131 198.952 138.797 196.23L127.631 105.294C127.447 103.792 128.515 102.425 130.017 102.24L138.905 101.149" fill="#E8F0FE"/>
<path d="M148.603 73.98C148.603 71.8993 150.29 70.2125 152.37 70.2125H214.783C215.782 70.2125 216.74 70.6091 217.446 71.3152L235.864 89.721C236.571 90.4276 236.968 91.3862 236.968 92.3858V178.1C236.968 180.181 235.281 181.868 233.2 181.868H152.37C150.29 181.868 148.603 180.181 148.603 178.1V73.98Z" fill="white" stroke="#021C7A" stroke-width="3.425"/>
<path d="M215.39 71.7919V87.68C215.39 89.9499 217.23 91.79 219.5 91.79H230.369" stroke="#75A4FE" stroke-width="3.425" stroke-linecap="round" stroke-linejoin="round"/>
<path d="M162.41 161.66H198.03M162.41 91.79H198.03H162.41ZM162.41 108.23H221.32H162.41ZM162.41 126.04H221.32H162.41ZM162.41 143.85H221.32H162.41Z" stroke="#75A4FE" stroke-width="3.425" stroke-linecap="round" stroke-linejoin="round"/>
</svg>
